<?xml version="1.0" encoding="UTF-8" standalone="no"?>
<!-- Created with Inkscape (http://www.inkscape.org/) -->

<svg
   width="90.633743mm"
   height="93.156067mm"
   viewBox="0 0 90.633743 93.156067"
   version="1.1"
   id="svg5"
   inkscape:version="1.1 (1:1.1+202106032008+af4d65493e)"
   sodipodi:docname="awesomesaas.svg"
   xmlns:inkscape="http://www.inkscape.org/namespaces/inkscape"
   xmlns:sodipodi="http://sodipodi.sourceforge.net/DTD/sodipodi-0.dtd"
   xmlns="http://www.w3.org/2000/svg"
   xmlns:svg="http://www.w3.org/2000/svg">
  <sodipodi:namedview
     id="namedview7"
     pagecolor="#ffffff"
     bordercolor="#666666"
     borderopacity="1.0"
     inkscape:pageshadow="2"
     inkscape:pageopacity="0.0"
     inkscape:pagecheckerboard="0"
     inkscape:document-units="mm"
     showgrid="false"
     showguides="false"
     inkscape:zoom="2.5620932"
     inkscape:cx="153.19505"
     inkscape:cy="221.88889"
     inkscape:window-width="1848"
     inkscape:window-height="1136"
     inkscape:window-x="1509"
     inkscape:window-y="1467"
     inkscape:window-maximized="1"
     inkscape:current-layer="layer1"
     fit-margin-top="0"
     fit-margin-left="0"
     fit-margin-right="0"
     fit-margin-bottom="0" />
  <defs
     id="defs2" />
  <g
     inkscape:label="Layer 1"
     inkscape:groupmode="layer"
     id="layer1"
     transform="translate(-22.085473,-13.646712)">
    <path
       id="path31"
       style="color:#000000;fill:#ff5354;stroke-width:3.77953;-inkscape-stroke:none;fill-opacity:1"
       d="m 253.25781,51.578125 c -54.51472,0 -103.38742,25.01558 -135.72461,64.150395 l 31.60938,37.11328 c 0.0119,-0.0166 0.0252,-0.0322 0.0371,-0.0488 l 161.63087,189.3027 c -17.28231,8.66306 -36.81172,13.56446 -57.55274,13.56446 -54.58531,0 -100.91718,-33.71651 -119.42578,-81.56836 H 83.472656 c 20.478684,74.52521 88.919154,129.57226 169.785154,129.57226 49.74398,0 94.78527,-20.83212 126.85742,-54.21094 l -31.23828,-36.46679 c -0.001,10e-4 -0.003,0.003 -0.004,0.004 L 183.58398,120.08789 c 20.0263,-12.96007 43.91531,-20.513671 69.67383,-20.513671 59.29024,0 108.83521,39.784441 123.56836,94.251951 l 49.19922,0.0137 C 410.18916,112.9576 338.65021,51.578125 253.25781,51.578125 Z"
       transform="scale(0.26458333)" />
  </g>
</svg>
